# xmcd
#
# Track frame offsets:
#	150
#	35939
#	51983
#	63712
#	81667
#	108411
#	139458
#	163985
#	182327
#	198464
#	225223
#
# Disc length: 3418 seconds
# Revision: 0
# Processed by: cddbd v1.5.2PL0 Copyright (c) Steve Scherf et al.
# Submitted via: dBpowerAMP V12.0
#
DISCID=a50d580b
DTITLE=Henry Turner Jr and Flavor - Louisiana Funk Buffet - Best Collection
DYEAR=2006
DGENRE=Blues
TTITLE0=01-I'm so Hot
TTITLE1=02-Ugly Man
TTITLE2=03-Wet
TTITLE3=04-Sex Crazed Maniac
TTITLE4=05-Politricks ~ Drum Mix
TTITLE5=06-Lil Boyfriend ~ Natural Mix
TTITLE6=07-Look My Way
TTITLE7=08-Gonna Be Alright
TTITLE8=09-Solid
TTITLE9=10-Politricks ~ Bass Mix {BMI}
TTITLE10=11-Lil Boyfriend ~ Bass Mix {BMI}
EXTD=
EXTT0=
EXTT1=
EXTT2=
EXTT3=
EXTT4=
EXTT5=
EXTT6=
EXTT7=
EXTT8=
EXTT9=
EXTT10=
PLAYORDER=
